<svg width="100" height="100" viewBox="0 0 100 100" fill="none" xmlns="http://www.w3.org/2000/svg">
    <circle cx="50" cy="50" r="50" fill="#FE7E03" fill-opacity="0.35"/>
    <path d="M17.7869 56.1484C18.4119 56.1484 18.7634 55.8359 18.9822 55.0859L19.5759 53.3281H23.6462L24.24 55.1094C24.4509 55.8438 24.8025 56.1484 25.4666 56.1484C26.1541 56.1484 26.6462 55.6875 26.6462 55.0391C26.6462 54.8047 26.6072 54.5938 26.4978 54.2891L23.4041 45.8984C23.0681 44.9766 22.5212 44.5703 21.5994 44.5703C20.7087 44.5703 20.1541 44.9922 19.8259 45.9062L16.7478 54.2891C16.6462 54.5781 16.5916 54.8438 16.5916 55.0391C16.5916 55.7188 17.0525 56.1484 17.7869 56.1484ZM20.0916 51.5L21.5525 46.8828H21.6072L23.0994 51.5H20.0916ZM32.6434 56H36.4559C38.8622 56 40.3544 54.7578 40.3544 52.7734C40.3544 51.2812 39.2294 50.1641 37.6981 50.0469V49.9844C38.8934 49.8047 39.8153 48.7734 39.8153 47.5391C39.8153 45.8125 38.4872 44.7266 36.37 44.7266H32.6434C31.9012 44.7266 31.4637 45.1797 31.4637 45.9531V54.7656C31.4637 55.5469 31.9012 56 32.6434 56ZM33.8231 49.4141V46.4844H35.7606C36.8622 46.4844 37.495 47 37.495 47.9062C37.495 48.8594 36.7762 49.4141 35.5184 49.4141H33.8231ZM33.8231 54.2422V50.9688H35.7997C37.1903 50.9688 37.9481 51.5312 37.9481 52.5859C37.9481 53.6641 37.2137 54.2422 35.8544 54.2422H33.8231ZM50.1641 56.1875C53.5 56.1875 55.6016 53.9531 55.6016 50.3672C55.6016 46.7734 53.5 44.5312 50.1641 44.5312C46.8203 44.5312 44.7266 46.7734 44.7266 50.3672C44.7266 53.9531 46.8203 56.1875 50.1641 56.1875ZM50.1641 54.2188C48.3125 54.2188 47.1328 52.7266 47.1328 50.3672C47.1328 48 48.3203 46.5 50.1641 46.5C52.0078 46.5 53.1875 48 53.1875 50.3672C53.1875 52.7266 52.0078 54.2188 50.1641 54.2188ZM65.2316 56.1875C68.1144 56.1875 69.9503 54.5 69.9503 52.0156V45.8047C69.9503 45.0234 69.5128 44.5703 68.7706 44.5703C68.0284 44.5703 67.5909 45.0234 67.5909 45.8047V51.7812C67.5909 53.2266 66.7394 54.1719 65.2316 54.1719C63.7159 54.1719 62.8644 53.2266 62.8644 51.7812V45.8047C62.8644 45.0234 62.4269 44.5703 61.6847 44.5703C60.9425 44.5703 60.505 45.0234 60.505 45.8047V52.0156C60.505 54.5 62.3409 56.1875 65.2316 56.1875ZM79.0881 56.1484C79.8303 56.1484 80.2678 55.6953 80.2678 54.9219V46.6797H82.6037C83.2366 46.6797 83.6662 46.3125 83.6662 45.7031C83.6662 45.0938 83.2444 44.7266 82.6037 44.7266H75.5803C74.9319 44.7266 74.51 45.0938 74.51 45.7031C74.51 46.3125 74.9397 46.6797 75.5803 46.6797H77.9084V54.9219C77.9084 55.6953 78.3459 56.1484 79.0881 56.1484Z" fill="#FE7E03"/>
</svg>
