<svg width="24" height="24" viewBox="0 0 24 24" fill="none" xmlns="http://www.w3.org/2000/svg">
    <path d="M21.25 7.49973C21.4312 7.49974 21.6063 7.56538 21.7429 7.6845C21.8795 7.80362 21.9684 7.96818 21.993 8.14773L22 8.24973V16.7497C22.0001 17.5799 21.6824 18.3786 21.1123 18.982C20.5422 19.5854 19.7628 19.9477 18.934 19.9947L18.75 19.9997H6.061L6.781 20.7197C6.90787 20.8468 6.98491 21.0153 6.99812 21.1944C7.01134 21.3735 6.95984 21.5514 6.853 21.6957L6.78 21.7797C6.65301 21.9068 6.48466 21.984 6.30555 21.9974C6.12644 22.0108 5.94847 21.9594 5.804 21.8527L5.72 21.7797L3.72 19.7797L3.656 19.7077C3.65365 19.7044 3.65132 19.7011 3.649 19.6977L3.719 19.7797C3.60494 19.6648 3.53098 19.5161 3.50811 19.3558C3.48523 19.1954 3.51465 19.032 3.592 18.8897C3.62665 18.8274 3.66972 18.7702 3.72 18.7197L5.72 16.7197C5.854 16.5868 6.03321 16.5092 6.22186 16.5026C6.41051 16.4959 6.59473 16.5607 6.73775 16.6839C6.88077 16.8071 6.97207 16.9797 6.99344 17.1673C7.0148 17.3548 6.96465 17.5435 6.853 17.6957L6.78 17.7797L6.06 18.4997H18.75C19.1893 18.4997 19.6126 18.3344 19.9357 18.0367C20.2588 17.739 20.4581 17.3306 20.494 16.8927L20.5 16.7497V8.24973C20.5 8.05082 20.579 7.86005 20.7197 7.7194C20.8603 7.57875 21.0511 7.49973 21.25 7.49973V7.49973ZM18.196 2.14673L18.28 2.21973L20.28 4.21973C20.3056 4.245 20.3293 4.27207 20.351 4.30073L20.281 4.21973C20.4203 4.35992 20.4988 4.5493 20.4995 4.74691C20.5003 4.94453 20.4232 5.1345 20.285 5.27573L20.28 5.27973L18.28 7.27973C18.146 7.41269 17.9668 7.49023 17.7781 7.49687C17.5895 7.50351 17.4053 7.43877 17.2622 7.31557C17.1192 7.19237 17.0279 7.01977 17.0066 6.83221C16.9852 6.64466 17.0353 6.45594 17.147 6.30373L17.22 6.21973L17.938 5.49973H5.25C4.81081 5.49975 4.38768 5.6649 4.06461 5.96241C3.74154 6.25992 3.54214 6.66803 3.506 7.10573L3.5 7.24973V15.7497C3.49994 15.9398 3.42776 16.1227 3.29803 16.2615C3.1683 16.4004 2.9907 16.4848 2.80112 16.4978C2.61154 16.5107 2.42411 16.4512 2.2767 16.3313C2.12929 16.2114 2.0329 16.04 2.007 15.8517L2 15.7497V7.24973C1.99995 6.41959 2.31755 5.6209 2.88767 5.0175C3.45779 4.4141 4.23719 4.05173 5.066 4.00473L5.25 3.99973H17.939L17.219 3.27973C17.0921 3.15262 17.0151 2.9842 17.0019 2.80509C16.9887 2.62599 17.0402 2.44809 17.147 2.30373L17.22 2.21973C17.347 2.09271 17.5153 2.01549 17.6945 2.00209C17.8736 1.98869 18.0515 2.04002 18.196 2.14673V2.14673ZM12 7.99973C13.0609 7.99973 14.0783 8.42116 14.8284 9.17131C15.5786 9.92145 16 10.9389 16 11.9997C16 13.0606 15.5786 14.078 14.8284 14.8282C14.0783 15.5783 13.0609 15.9997 12 15.9997C10.9391 15.9997 9.92172 15.5783 9.17157 14.8282C8.42143 14.078 8 13.0606 8 11.9997C8 10.9389 8.42143 9.92145 9.17157 9.17131C9.92172 8.42116 10.9391 7.99973 12 7.99973V7.99973Z" fill="white"/>
</svg>
