<svg width="32" height="32" viewBox="0 0 32 32" fill="none" xmlns="http://www.w3.org/2000/svg">
    <path fill-rule="evenodd" clip-rule="evenodd" d="M10.8138 21.4293C11.3228 21.8411 11.598 22.4761 11.5505 23.1291L11.5302 23.4091L12.7226 23.0102C13.0937 22.886 13.493 22.8734 13.8712 22.974C14.5472 23.1538 15.25 23.2486 15.9947 23.2486C20.4843 23.2486 24 19.7563 24 15.6243C24 11.4896 20.4922 8 16.0053 8C11.5064 8 8 11.4909 8 15.6243C8 17.9413 9.07428 20.0218 10.8138 21.4293ZM9.38494 25.3341C9.35291 25.7721 9.78003 26.1139 10.1965 25.9643L13.3572 24.9068C14.2007 25.1311 15.0763 25.2486 15.9947 25.2486C21.5152 25.2486 26 20.9332 26 15.6243C26 10.3155 21.5259 6 16.0053 6C10.4741 6 6 10.3155 6 15.6243C6 18.5832 7.37747 21.2216 9.55579 22.9841L9.38494 25.3341Z" fill="black"/>
</svg>
