<svg width="24" height="24" viewBox="0 0 24 24" fill="none" xmlns="http://www.w3.org/2000/svg">
    <path fill-rule="evenodd" clip-rule="evenodd" d="M5.125 1C2.84682 1 1 2.84682 1 5.125V18.875C1 21.1532 2.84682 23 5.125 23H18.875C21.1532 23 23 21.1532 23 18.875V5.125C23 2.84682 21.1532 1 18.875 1H5.125ZM5.57237 16.8322L7.15091 13.9909C7.54098 13.2887 8.44728 13.069 9.11559 13.5146L10.5583 14.4763C11.2951 14.9676 12.2975 14.6443 12.6084 13.8151L14.5433 8.65534C15.0199 7.38452 16.854 7.49933 17.1684 8.81966L19.1593 17.1815C19.365 18.0455 18.7098 18.875 17.8217 18.875H6.77433C5.72592 18.875 5.06321 17.7487 5.57237 16.8322Z" fill="white"/>
</svg>
