<svg width="32" height="32" viewBox="0 0 32 32" fill="none" xmlns="http://www.w3.org/2000/svg">
    <path fill-rule="evenodd" clip-rule="evenodd" d="M4.75 1C2.67885 1 1 2.67908 1 4.75V27.25C1 29.3209 2.67885 31 4.75 31H27.25C29.3212 31 31 29.3209 31 27.25V4.75C31 2.67908 29.3212 1 27.25 1H4.75ZM7.77124 20.259L9.65471 16.8679C10.1203 16.0311 11.2015 15.7693 11.9989 16.3003L13.7203 17.4484C14.5995 18.0343 15.7956 17.6479 16.1666 16.6592L18.4754 10.5013C19.0439 8.98523 21.2322 9.12256 21.6074 10.6991L23.9829 20.6747C24.2283 21.7056 23.4467 22.6962 22.3869 22.6962H9.20541C7.95457 22.6962 7.16379 21.3522 7.77124 20.259Z" fill="#151515"/>
</svg>
