<svg width="28" height="28" viewBox="0 0 28 28" fill="none" xmlns="http://www.w3.org/2000/svg">
    <rect width="28" height="28" fill="white"/>
    <path fill-rule="evenodd" clip-rule="evenodd" d="M24 24.0006V16.2085C24 15.6952 23.8026 15.2016 23.4488 14.8297L14 4.9017L4.55125 14.8297C4.19737 15.2016 4 15.6952 4 16.2085V24.0006H10.5V21.5006C10.5 19.5676 12.067 18.0006 14 18.0006C15.933 18.0006 17.5 19.5676 17.5 21.5006V24.0006H24ZM3.1025 13.4509C2.39473 14.1946 2 15.1819 2 16.2085V25.0006C2 25.5529 2.44772 26.0006 3 26.0006H25C25.5523 26.0006 26 25.5529 26 25.0006V16.2085C26 15.1819 25.6053 14.1946 24.8975 13.4509L14.7244 2.76177C14.3302 2.34764 13.6698 2.34764 13.2756 2.76177L3.1025 13.4509Z" fill="#808080"/>
</svg>
