<svg width="32" height="32" viewBox="0 0 32 32" fill="none" xmlns="http://www.w3.org/2000/svg">
    <path fill-rule="evenodd" clip-rule="evenodd" d="M16.0016 22.9805C17.117 22.1572 18.9557 20.7598 20.6753 19.2734C21.5476 18.5193 22.3677 17.7608 23.0392 17.057C23.7325 16.3303 24.1762 15.7556 24.3865 15.3663C25.6741 12.9759 24.8531 9.95073 22.7282 8.63881C22.0416 8.21574 21.2795 8 20.5181 8C19.3651 8 18.2713 8.465 17.433 9.3269L15.9993 10.8009L14.5656 9.3269C13.7273 8.465 12.6335 8 11.4804 8C10.7193 8 9.95738 8.21564 9.27091 8.63851C7.14544 9.95036 6.32499 12.9752 7.61608 15.365C7.82623 15.7543 8.27033 16.3299 8.96406 17.057C9.63553 17.7608 10.4556 18.5193 11.3279 19.2734C13.0475 20.7598 14.8862 22.1572 16.0016 22.9805ZM26.1468 16.3156C24.7935 18.8227 19.399 22.961 17.1419 24.6246C16.8047 24.8702 16.4114 25 15.9993 25C15.5872 25 15.1939 24.8702 14.8614 24.6246C12.6043 22.961 7.20978 18.8227 5.85646 16.3156C4.08639 13.0393 5.14937 8.83146 8.22125 6.9361C9.21399 6.32439 10.3379 6 11.4804 6C13.067 6 14.5648 6.59894 15.7341 7.67451C15.8245 7.75766 15.9129 7.84365 15.9993 7.93244C16.0857 7.84365 16.1741 7.75765 16.2645 7.6745C17.4338 6.59894 18.9316 6 20.5181 6C21.6607 6 22.7846 6.32439 23.7773 6.9361C26.8492 8.83146 27.9122 13.0393 26.1468 16.3156Z" fill="black"/>
</svg>
