<svg width="32" height="32" viewBox="0 0 32 32" fill="none" xmlns="http://www.w3.org/2000/svg">
    <path fill-rule="evenodd" clip-rule="evenodd" d="M26.1468 16.3156C24.7935 18.8227 19.399 22.961 17.1419 24.6246C16.8047 24.8702 16.4114 25 15.9993 25C15.5872 25 15.1939 24.8702 14.8614 24.6246C12.6043 22.961 7.20978 18.8227 5.85646 16.3156C4.08639 13.0393 5.14937 8.83146 8.22125 6.9361C9.21399 6.32439 10.3379 6 11.4804 6C13.067 6 14.5648 6.59894 15.7341 7.67451C15.8245 7.75766 15.9129 7.84365 15.9993 7.93244C16.0857 7.84365 16.1741 7.75765 16.2645 7.6745C17.4338 6.59894 18.9316 6 20.5181 6C21.6607 6 22.7846 6.32439 23.7773 6.9361C26.8492 8.83146 27.9122 13.0393 26.1468 16.3156Z" fill="#FE7E03"/>
</svg>
