<svg width="114" height="24" viewBox="0 0 114 24" fill="none" xmlns="http://www.w3.org/2000/svg">
    <path d="M11.6689 0.138672C8.92409 5.10623 4.88699 9.20991 0 12C4.88699 14.7901 8.92409 18.8938 11.6689 23.8614C14.4138 18.8938 18.4508 14.7901 23.3378 12C18.4508 9.20991 14.4138 5.10623 11.6689 0.138672Z" fill="#FE7E03"/>
    <path d="M33.4294 18.4364V4.51758H35.7211V16.2519H41.7688V18.4364H33.4294ZM46.2514 18.7265C45.5097 18.7265 44.8821 18.5846 44.3686 18.301C43.8552 18.0111 43.4653 17.6277 43.199 17.1508C42.9391 16.674 42.8092 16.1488 42.8092 15.5753C42.8092 15.0727 42.8916 14.6216 43.0564 14.2221C43.2212 13.8161 43.4748 13.4682 43.8171 13.1781C44.1594 12.8817 44.6032 12.6402 45.1484 12.4532C45.5604 12.318 46.0422 12.1956 46.5938 12.086C47.1516 11.9764 47.7538 11.8765 48.4005 11.7864C49.0534 11.6897 49.7349 11.5866 50.4449 11.477L49.6271 11.9506C49.6335 11.2289 49.475 10.6973 49.1517 10.3558C48.8284 10.0142 48.2832 9.84345 47.5161 9.84345C47.0534 9.84345 46.6064 9.95307 46.1754 10.1721C45.7443 10.3911 45.4432 10.7681 45.272 11.303L43.18 10.6362C43.4336 9.75332 43.9154 9.04445 44.6254 8.50955C45.3417 7.97485 46.3053 7.7073 47.5161 7.7073C48.429 7.7073 49.2309 7.85873 49.9219 8.16161C50.6192 8.46448 51.1359 8.96061 51.4719 9.6502C51.6557 10.0174 51.7666 10.3944 51.8047 10.7811C51.8428 11.1613 51.8617 11.5769 51.8617 12.0279V18.4364H49.8553V16.1746L50.1881 16.542C49.7254 17.2959 49.1834 17.8499 48.5621 18.2044C47.9472 18.5523 47.177 18.7265 46.2514 18.7265ZM46.7079 16.8705C47.2277 16.8705 47.6714 16.7771 48.0391 16.5903C48.4068 16.4034 48.6984 16.1746 48.9139 15.904C49.1358 15.6334 49.2848 15.3788 49.3609 15.1403C49.4813 14.8439 49.5479 14.5057 49.5606 14.1255C49.5796 13.7388 49.5891 13.4264 49.5891 13.1879L50.2927 13.4006C49.6017 13.51 49.009 13.6066 48.5146 13.6905C48.0201 13.7743 47.5954 13.8549 47.2404 13.9321C46.8854 14.0031 46.5716 14.0835 46.299 14.1738C46.0327 14.2705 45.8077 14.3831 45.6238 14.512C45.44 14.6409 45.2973 14.7891 45.1959 14.9568C45.1008 15.1243 45.0533 15.3208 45.0533 15.5463C45.0533 15.8041 45.1167 16.0329 45.2435 16.2326C45.3703 16.4259 45.5541 16.5806 45.795 16.6965C46.0422 16.8126 46.3465 16.8705 46.7079 16.8705ZM58.6545 23.366C58.0839 23.366 57.5356 23.2757 57.0093 23.0954C56.4895 22.915 56.0204 22.6539 55.602 22.3125C55.1836 21.9773 54.8413 21.5713 54.5751 21.0945L56.686 20.0314C56.8825 20.4114 57.1583 20.6917 57.5134 20.8722C57.8747 21.0591 58.2583 21.1525 58.6639 21.1525C59.1394 21.1525 59.5642 21.0654 59.9382 20.8915C60.3121 20.724 60.6006 20.4727 60.8035 20.1375C61.0126 19.8089 61.1109 19.3966 61.0983 18.9005V15.933H61.3835V7.99738H63.3899V18.939C63.3899 19.2033 63.3771 19.4546 63.3518 19.693C63.3328 19.9378 63.298 20.1763 63.2473 20.4083C63.0951 21.0849 62.8036 21.6391 62.3724 22.0707C61.9414 22.509 61.4056 22.8344 60.7654 23.0471C60.1315 23.2596 59.4278 23.366 58.6545 23.366ZM58.4548 18.7265C57.5102 18.7265 56.686 18.4847 55.9824 18.0014C55.2787 17.5182 54.7335 16.8609 54.3469 16.0296C53.9602 15.1984 53.7667 14.2607 53.7667 13.2169C53.7667 12.1601 53.9602 11.2192 54.3469 10.3944C54.7399 9.56311 55.2947 8.90905 56.011 8.43221C56.7273 7.94907 57.5703 7.7073 58.5403 7.7073C59.5166 7.7073 60.3344 7.94907 60.9936 8.43221C61.6593 8.90905 62.1633 9.56311 62.5056 10.3944C62.8479 11.2257 63.0191 12.1666 63.0191 13.2169C63.0191 14.2544 62.8479 15.1919 62.5056 16.0296C62.1633 16.8609 61.6529 17.5182 60.9747 18.0014C60.2963 18.4847 59.4563 18.7265 58.4548 18.7265ZM58.8065 16.6386C59.4216 16.6386 59.916 16.4967 60.2899 16.2134C60.6703 15.9233 60.9461 15.5205 61.1173 15.0051C61.2948 14.4895 61.3835 13.8935 61.3835 13.2169C61.3835 12.5338 61.2948 11.9378 61.1173 11.4287C60.9461 10.9133 60.6767 10.5138 60.3091 10.2302C59.9412 9.94008 59.4659 9.79514 58.8826 9.79514C58.2677 9.79514 57.7606 9.94983 57.3612 10.2592C56.9618 10.5621 56.667 10.9744 56.4769 11.4963C56.2866 12.0119 56.1915 12.5854 56.1915 13.2169C56.1915 13.8549 56.2836 14.4347 56.4673 14.9568C56.6574 15.4722 56.946 15.8815 57.3327 16.1843C57.7193 16.4872 58.2108 16.6386 58.8065 16.6386ZM70.5923 18.7265C69.5652 18.7265 68.6683 18.4912 67.9012 18.0209C67.1342 17.5503 66.5383 16.9027 66.1135 16.078C65.6951 15.2467 65.4858 14.293 65.4858 13.2169C65.4858 12.1215 65.7015 11.1613 66.1325 10.3365C66.5636 9.51155 67.1625 8.86723 67.9296 8.40338C68.6967 7.93933 69.5842 7.7073 70.5923 7.7073C71.6255 7.7073 72.5256 7.94257 73.2927 8.41292C74.0597 8.88327 74.6557 9.53429 75.0804 10.3654C75.5052 11.1904 75.7175 12.1408 75.7175 13.2169C75.7175 14.2995 75.502 15.2564 75.0709 16.0877C74.6463 16.9125 74.0504 17.56 73.2833 18.0304C72.5162 18.4945 71.6192 18.7265 70.5923 18.7265ZM70.5923 16.542C71.5051 16.542 72.1833 16.2326 72.6271 15.6139C73.0708 14.9954 73.2927 14.1964 73.2927 13.2169C73.2927 12.2051 73.0678 11.3996 72.6177 10.8004C72.1675 10.1946 71.4923 9.89177 70.5923 9.89177C69.9774 9.89177 69.4701 10.0337 69.0707 10.3171C68.6777 10.5941 68.3861 10.9841 68.196 11.4867C68.0057 11.9829 67.9106 12.5596 67.9106 13.2169C67.9106 14.2286 68.1357 15.0372 68.5858 15.6429C69.0422 16.2422 69.711 16.542 70.5923 16.542ZM82.3485 18.7265C81.3214 18.7265 80.4246 18.4912 79.6575 18.0209C78.8904 17.5503 78.2945 16.9027 77.8697 16.078C77.4513 15.2467 77.2421 14.293 77.2421 13.2169C77.2421 12.1215 77.4577 11.1613 77.8887 10.3365C78.3199 9.51155 78.9188 8.86723 79.6858 8.40338C80.4529 7.93933 81.3404 7.7073 82.3485 7.7073C83.3818 7.7073 84.2819 7.94257 85.0489 8.41292C85.816 8.88327 86.4119 9.53429 86.8367 10.3654C87.2615 11.1904 87.4737 12.1408 87.4737 13.2169C87.4737 14.2995 87.2583 15.2564 86.8271 16.0877C86.4025 16.9125 85.8066 17.56 85.0395 18.0304C84.2725 18.4945 83.3754 18.7265 82.3485 18.7265ZM82.3485 16.542C83.2614 16.542 83.9396 16.2326 84.3833 15.6139C84.827 14.9954 85.0489 14.1964 85.0489 13.2169C85.0489 12.2051 84.8239 11.3996 84.3739 10.8004C83.9238 10.1946 83.2486 9.89177 82.3485 9.89177C81.7336 9.89177 81.2264 10.0337 80.827 10.3171C80.4339 10.5941 80.1424 10.9841 79.9522 11.4867C79.7619 11.9829 79.6669 12.5596 79.6669 13.2169C79.6669 14.2286 79.8919 15.0372 80.3421 15.6429C80.7984 16.2422 81.4672 16.542 82.3485 16.542ZM94.1047 18.7265C93.0777 18.7265 92.1806 18.4912 91.4137 18.0209C90.6467 17.5503 90.0507 16.9027 89.626 16.078C89.2076 15.2467 88.9983 14.293 88.9983 13.2169C88.9983 12.1215 89.214 11.1613 89.6449 10.3365C90.0761 9.51155 90.675 8.86723 91.4421 8.40338C92.2091 7.93933 93.0966 7.7073 94.1047 7.7073C95.138 7.7073 96.0381 7.94257 96.8052 8.41292C97.5722 8.88327 98.1681 9.53429 98.5929 10.3654C99.0177 11.1904 99.23 12.1408 99.23 13.2169C99.23 14.2995 99.0145 15.2564 98.5833 16.0877C98.1588 16.9125 97.5628 17.56 96.7958 18.0304C96.0287 18.4945 95.1316 18.7265 94.1047 18.7265ZM94.1047 16.542C95.0176 16.542 95.6958 16.2326 96.1395 15.6139C96.5833 14.9954 96.8052 14.1964 96.8052 13.2169C96.8052 12.2051 96.5801 11.3996 96.1302 10.8004C95.68 10.1946 95.0048 9.89177 94.1047 9.89177C93.4897 9.89177 92.9826 10.0337 92.5832 10.3171C92.1902 10.5941 91.8986 10.9841 91.7085 11.4867C91.5182 11.9829 91.4231 12.5596 91.4231 13.2169C91.4231 14.2286 91.6482 15.0372 92.0983 15.6429C92.5546 16.2422 93.2234 16.542 94.1047 16.542ZM108.428 18.4364V13.4101C108.428 13.0815 108.406 12.7175 108.362 12.318C108.317 11.9185 108.213 11.535 108.048 11.1678C107.889 10.7939 107.649 10.488 107.325 10.2495C107.008 10.0111 106.577 9.89177 106.032 9.89177C105.74 9.89177 105.452 9.94008 105.167 10.0369C104.881 10.1335 104.622 10.301 104.387 10.5395C104.159 10.7714 103.975 11.0935 103.836 11.506C103.696 11.912 103.626 12.4339 103.626 13.0719L102.266 12.4822C102.266 11.5931 102.434 10.7876 102.771 10.0657C103.113 9.34408 103.614 8.7706 104.273 8.34532C104.932 7.91354 105.744 7.69776 106.707 7.69776C107.468 7.69776 108.095 7.82666 108.59 8.08426C109.084 8.34207 109.477 8.67073 109.769 9.07023C110.061 9.46974 110.276 9.89502 110.416 10.3461C110.555 10.7971 110.644 11.2257 110.682 11.6317C110.726 12.0312 110.749 12.3566 110.749 12.6079V18.4364H108.428ZM101.306 18.4364V7.99738H103.35V11.2354H103.626V18.4364H101.306Z" fill="#070707"/>
</svg>
