<svg width="81" height="80" viewBox="0 0 81 80" fill="none" xmlns="http://www.w3.org/2000/svg">
    <g clip-path="url(#clip0_2496_9649)">
        <rect x="0.438477" width="80.1232" height="80.1232" rx="13" fill="black"/>
        <rect x="80.5618" y="80.1232" width="80.1232" height="80.1232" rx="13" transform="rotate(-180 80.5618 80.1232)" fill="url(#paint0_linear_2496_9649)"/>
        <rect x="79.5618" y="79.1232" width="78.1232" height="78.1232" rx="12" transform="rotate(-180 79.5618 79.1232)" stroke="black" stroke-opacity="0.2" stroke-width="2"/>
        <rect x="79.5618" y="79.1232" width="78.1232" height="78.1232" rx="12" transform="rotate(-180 79.5618 79.1232)" stroke="url(#paint1_linear_2496_9649)" stroke-opacity="0.2" stroke-width="2"/>
        <g filter="url(#filter0_ddd_2496_9649)">
            <path fill-rule="evenodd" clip-rule="evenodd" d="M40.4382 11.4138L41.894 14.0056C47.6663 24.2825 56.1558 32.7721 66.4327 38.5443L69.0245 40L66.4326 41.4557C56.1558 47.2278 47.6663 55.7175 41.894 65.9944L40.4382 68.5862L38.9825 65.9944C33.2105 55.7175 24.7208 47.2278 14.4439 41.4557L11.8521 40L14.4439 38.5443C24.7208 32.7721 33.2105 24.2824 38.9825 14.0056L40.4382 11.4138Z" fill="#FE7E03"/>
        </g>
        <path fill-rule="evenodd" clip-rule="evenodd" d="M40.4382 11.4138L41.894 14.0056C47.6663 24.2825 56.1558 32.7721 66.4327 38.5443L69.0245 40L66.4326 41.4557C56.1558 47.2278 47.6663 55.7175 41.894 65.9944L40.4382 68.5862L38.9825 65.9944C33.2105 55.7175 24.7208 47.2278 14.4439 41.4557L11.8521 40L14.4439 38.5443C24.7208 32.7721 33.2105 24.2824 38.9825 14.0056L40.4382 11.4138Z" fill="url(#paint2_linear_2496_9649)"/>
    </g>
    <defs>
        <filter id="filter0_ddd_2496_9649" x="-20.1479" y="-9.58618" width="107.172" height="107.172" filterUnits="userSpaceOnUse" color-interpolation-filters="sRGB">
            <feFlood flood-opacity="0" result="BackgroundImageFix"/>
            <feColorMatrix in="SourceAlpha" type="matrix" values="0 0 0 0 0 0 0 0 0 0 0 0 0 0 0 0 0 0 127 0" result="hardAlpha"/>
            <feOffset dx="-7" dy="4"/>
            <feGaussianBlur stdDeviation="12.5"/>
            <feComposite in2="hardAlpha" operator="out"/>
            <feColorMatrix type="matrix" values="0 0 0 0 0.320833 0 0 0 0 0.157221 0 0 0 0 0 0 0 0 1 0"/>
            <feBlend mode="normal" in2="BackgroundImageFix" result="effect1_dropShadow_2496_9649"/>
            <feColorMatrix in="SourceAlpha" type="matrix" values="0 0 0 0 0 0 0 0 0 0 0 0 0 0 0 0 0 0 127 0" result="hardAlpha"/>
            <feOffset dy="4"/>
            <feGaussianBlur stdDeviation="2"/>
            <feComposite in2="hardAlpha" operator="out"/>
            <feColorMatrix type="matrix" values="0 0 0 0 0 0 0 0 0 0 0 0 0 0 0 0 0 0 0.25 0"/>
            <feBlend mode="normal" in2="effect1_dropShadow_2496_9649" result="effect2_dropShadow_2496_9649"/>
            <feColorMatrix in="SourceAlpha" type="matrix" values="0 0 0 0 0 0 0 0 0 0 0 0 0 0 0 0 0 0 127 0" result="hardAlpha"/>
            <feOffset dy="4"/>
            <feGaussianBlur stdDeviation="3.5"/>
            <feComposite in2="hardAlpha" operator="out"/>
            <feColorMatrix type="matrix" values="0 0 0 0 0 0 0 0 0 0 0 0 0 0 0 0 0 0 0.25 0"/>
            <feBlend mode="normal" in2="effect2_dropShadow_2496_9649" result="effect3_dropShadow_2496_9649"/>
            <feBlend mode="normal" in="SourceGraphic" in2="effect3_dropShadow_2496_9649" result="shape"/>
        </filter>
        <linearGradient id="paint0_linear_2496_9649" x1="45.3294" y1="-63.8905" x2="120.623" y2="160.246" gradientUnits="userSpaceOnUse">
            <stop stop-color="white"/>
            <stop offset="1" stop-color="white" stop-opacity="0"/>
        </linearGradient>
        <linearGradient id="paint1_linear_2496_9649" x1="120.623" y1="80.1232" x2="120.623" y2="160.246" gradientUnits="userSpaceOnUse">
            <stop stop-color="white"/>
            <stop offset="1" stop-color="white" stop-opacity="0"/>
        </linearGradient>
        <linearGradient id="paint2_linear_2496_9649" x1="40.4383" y1="-10.2871" x2="40.4383" y2="74.333" gradientUnits="userSpaceOnUse">
            <stop stop-color="white"/>
            <stop offset="0.633341" stop-color="white" stop-opacity="0"/>
            <stop offset="1" stop-color="white" stop-opacity="0"/>
        </linearGradient>
        <clipPath id="clip0_2496_9649">
            <rect width="80.0001" height="80" fill="white" transform="translate(0.438477)"/>
        </clipPath>
    </defs>
</svg>
