<svg width="100" height="100" viewBox="0 0 100 100" fill="none" xmlns="http://www.w3.org/2000/svg">
    <circle cx="50" cy="50" r="50" fill="#FE7E03" fill-opacity="0.35"/>
    <path d="M19.0999 57.1855C19.9788 57.1855 20.5062 56.6484 20.5062 55.7109V47.7715H20.5941L26.7073 56.3359C27.1566 56.9609 27.5472 57.1855 28.182 57.1855C29.1097 57.1855 29.6273 56.668 29.6273 55.75V44.1973C29.6273 43.25 29.1097 42.7129 28.221 42.7129C27.3323 42.7129 26.805 43.25 26.805 44.1973V52.0879H26.7269L20.6331 43.5723C20.1839 42.957 19.7738 42.7129 19.1683 42.7129C18.2308 42.7129 17.6839 43.25 17.6839 44.1875V55.7109C17.6839 56.6484 18.2113 57.1855 19.0999 57.1855ZM36.2983 57.1855C37.0795 57.1855 37.519 56.7949 37.7924 55.8574L38.5346 53.6602H43.6225L44.3647 55.8867C44.6284 56.8047 45.0678 57.1855 45.8979 57.1855C46.7573 57.1855 47.3725 56.6094 47.3725 55.7988C47.3725 55.5059 47.3237 55.2422 47.187 54.8613L43.3198 44.373C42.8998 43.2207 42.2163 42.7129 41.0639 42.7129C39.9506 42.7129 39.2573 43.2402 38.8471 44.3828L34.9995 54.8613C34.8725 55.2227 34.8041 55.5547 34.8041 55.7988C34.8041 56.6484 35.3803 57.1855 36.2983 57.1855ZM39.1791 51.375L41.0053 45.6035H41.0737L42.9389 51.375H39.1791ZM53.8677 57.1855C54.6978 57.1855 55.1763 56.6777 55.1763 55.8086V47.4883H55.2545L58.7408 56.0234C58.9849 56.6289 59.3951 56.9121 60.0201 56.9121C60.6353 56.9121 61.0259 56.6387 61.2798 56.0137L64.7662 47.4883H64.8443V55.8086C64.8443 56.6777 65.3228 57.1855 66.1529 57.1855C66.983 57.1855 67.4713 56.6777 67.4713 55.8086V44.6172C67.4713 43.416 66.7681 42.7129 65.5767 42.7129C64.5416 42.7129 63.9654 43.1523 63.5357 44.2363L60.0494 52.8984H59.9713L56.4752 44.2363C56.0455 43.1426 55.4791 42.7129 54.4537 42.7129C53.2525 42.7129 52.5494 43.4258 52.5494 44.6172V55.8086C52.5494 56.6777 53.0377 57.1855 53.8677 57.1855ZM74.6696 57H81.3688C82.1794 57 82.7067 56.541 82.7067 55.7793C82.7067 55.0176 82.1696 54.5586 81.3688 54.5586H76.1442V51.0039H81.1149C81.8571 51.0039 82.3454 50.5742 82.3454 49.8711C82.3454 49.168 81.8473 48.7383 81.1149 48.7383H76.1442V45.3496H81.3688C82.1696 45.3496 82.7067 44.8906 82.7067 44.1289C82.7067 43.3672 82.1794 42.9082 81.3688 42.9082H74.6696C73.7419 42.9082 73.195 43.4746 73.195 44.4414V55.457C73.195 56.4336 73.7419 57 74.6696 57Z" fill="#FE7E03"/>
</svg>
