<svg width="32" height="32" viewBox="0 0 32 32" fill="none" xmlns="http://www.w3.org/2000/svg">
    <path fill-rule="evenodd" clip-rule="evenodd" d="M23.9093 8.33678L8.221 8.34818L13.2974 12.7258C14.0473 13.3725 14.5554 14.2546 14.7386 15.2277L15.9792 21.8172L23.9093 8.33678ZM16.2607 25.6497C16.0472 26.0105 15.6406 26.2036 15.229 26.1376C14.8122 26.0715 14.4972 25.7666 14.4209 25.3549L12.5905 15.6321C12.4989 15.1455 12.2449 14.7045 11.8699 14.3812L4.36332 7.90784C4.27693 7.83161 4.20578 7.74521 4.14987 7.65373C4.00757 7.40471 3.98216 7.09978 4.08889 6.81518C4.23627 6.42385 4.60218 6.16466 5.024 6.16466L26.0083 6.14941C26.364 6.14941 26.6943 6.33237 26.8671 6.6373C27.045 6.94223 27.045 7.31831 26.8621 7.62832L16.2607 25.6497Z" fill="black"/>
</svg>
