<svg width="24" height="24" viewBox="0 0 24 24" fill="none" xmlns="http://www.w3.org/2000/svg">
    <path fill-rule="evenodd" clip-rule="evenodd" d="M21.8844 3.42468C21.734 3.15925 21.4465 3 21.1368 3L2.87115 3.01327C2.50398 3.01327 2.18547 3.23888 2.05718 3.57951C1.96428 3.82724 1.9864 4.09267 2.11027 4.30943C2.15893 4.38906 2.22086 4.46426 2.29606 4.53062L9.33425 10.6L11.0507 19.7173C11.117 20.0757 11.3913 20.3411 11.754 20.3986C12.1124 20.4561 12.4663 20.288 12.6521 19.9739L21.88 4.28731C22.0393 4.01746 22.0393 3.6901 21.8844 3.42468ZM4.11422 4.32712H18.9869L10.0332 9.43656L4.11422 4.32712ZM12.1301 18.2398L10.6879 10.5779L19.6549 5.46403L12.1301 18.2398Z" fill="white" stroke="white" stroke-width="0.5"/>
</svg>
