<svg width="32" height="32" viewBox="0 0 32 32" fill="none" xmlns="http://www.w3.org/2000/svg">
    <path fill-rule="evenodd" clip-rule="evenodd" d="M10 6C10 5.44772 9.55228 5 9 5H6C5.44772 5 5 5.44772 5 6V26C5 26.5523 5.44772 27 6 27H26C26.5523 27 27 26.5523 27 26V6C27 5.44772 26.5523 5 26 5H23C22.4477 5 22 5.44772 22 6V7C22 7.55228 21.5523 8 21 8H11C10.4477 8 10 7.55228 10 7V6Z" fill="#FE7E03"/>
    <circle cx="16" cy="17" r="6" fill="black"/>
    <circle cx="16" cy="17" r="4" fill="white"/>
</svg>
