<svg width="32" height="32" viewBox="0 0 32 32" fill="none" xmlns="http://www.w3.org/2000/svg">
    <path d="M30 16C30 18.7689 29.1789 21.4757 27.6406 23.778C26.1022 26.0803 23.9157 27.8747 21.3576 28.9343C18.7994 29.9939 15.9845 30.2712 13.2687 29.731C10.553 29.1908 8.05844 27.8574 6.10051 25.8995C4.14257 23.9416 2.8092 21.447 2.26901 18.7313C1.72881 16.0155 2.00606 13.2006 3.06569 10.6424C4.12531 8.08427 5.91973 5.89777 8.22202 4.35943C10.5243 2.82109 13.2311 2 16 2" stroke="black" stroke-width="3" stroke-linecap="round"/>
    <path d="M28.5562 9.8072C27.8969 8.47022 27.0321 7.25466 26 6.20126" stroke="black" stroke-width="3" stroke-linecap="round"/>
    <path d="M16 11V21" stroke="black" stroke-width="3" stroke-linecap="round"/>
    <path d="M11 16L21 16" stroke="black" stroke-width="3" stroke-linecap="round"/>
</svg>
