<svg width="32" height="32" viewBox="0 0 32 32" fill="none" xmlns="http://www.w3.org/2000/svg">
    <rect width="32" height="32" fill="white"/>
    <path fill-rule="evenodd" clip-rule="evenodd" d="M14.9232 0.608759C15.3948 -0.148226 16.5244 -0.148234 16.996 0.608746C20.621 6.42795 25.5322 11.3392 31.3515 14.9642C32.1084 15.4358 32.1084 16.5655 31.3514 17.037C25.5322 20.662 20.621 25.5733 16.996 31.3925C16.5244 32.1495 15.3948 32.1495 14.9232 31.3925C11.2983 25.5733 6.38697 20.662 0.567745 17.037C-0.189246 16.5655 -0.189249 15.4358 0.567739 14.9642C6.38697 11.3392 11.2983 6.42796 14.9232 0.608759Z" fill="#FE7E03"/>
    <path d="M21.1963 15.0118C22 15.4427 22 16.6012 21.1963 17.0321L13.9682 20.9077C13.2101 21.3142 12.2946 20.7617 12.2946 19.8976L12.2946 12.1463C12.2946 11.2822 13.2101 10.7297 13.9682 11.1362L21.1963 15.0118Z" fill="white"/>
</svg>
