<svg width="32" height="32" viewBox="0 0 32 32" fill="none" xmlns="http://www.w3.org/2000/svg">
    <path fill-rule="evenodd" clip-rule="evenodd" d="M16.996 0.608746C16.5244 -0.148234 15.3948 -0.148226 14.9232 0.608759C11.2983 6.42796 6.38697 11.3392 0.567739 14.9642C-0.189249 15.4358 -0.189246 16.5655 0.567745 17.037C6.38697 20.662 11.2983 25.5733 14.9232 31.3925C15.3948 32.1495 16.5244 32.1495 16.996 31.3925C20.621 25.5733 25.5322 20.662 31.3514 17.037C32.1084 16.5655 32.1084 15.4358 31.3515 14.9642C25.5322 11.3392 20.621 6.42795 16.996 0.608746ZM21.1963 17.0321C22 16.6012 22 15.4427 21.1963 15.0118L13.9682 11.1362C13.2101 10.7297 12.2946 11.2822 12.2946 12.1463V19.8976C12.2946 20.7617 13.2101 21.3142 13.9682 20.9077L21.1963 17.0321Z" fill="#151515"/>
</svg>
